<svg width="14" height="15" viewBox="0 0 14 15" fill="none" xmlns="http://www.w3.org/2000/svg">
<path d="M9.28312 7.80647C9.28312 9.06539 8.25633 10.0922 6.99741 10.0922C5.73848 10.0922 4.71169 9.06539 4.71169 7.80647C4.71169 6.54754 5.73848 5.52075 6.99741 5.52075C8.25633 5.52075 9.28312 6.54754 9.28312 7.80647ZM10.5153 7.80647C10.5153 5.86004 8.94383 4.28861 6.99741 4.28861C5.05098 4.28861 3.47955 5.86004 3.47955 7.80647C3.47955 9.75289 5.05098 11.3243 6.99741 11.3243C8.94383 11.3243 10.5153 9.75289 10.5153 7.80647ZM11.4795 4.14575C11.4795 3.69039 11.1135 3.32432 10.6581 3.32432C10.2028 3.32432 9.83669 3.69039 9.83669 4.14575C9.83669 4.60111 10.2028 4.96718 10.6581 4.96718C11.1135 4.96718 11.4795 4.60111 11.4795 4.14575ZM6.99741 2.18147C7.99741 2.18147 10.1403 2.10111 11.042 2.45825C11.3545 2.58325 11.5867 2.73504 11.8278 2.97611C12.0688 3.21718 12.2206 3.44932 12.3456 3.76182C12.7028 4.66361 12.6224 6.80647 12.6224 7.80647C12.6224 8.80647 12.7028 10.9493 12.3456 11.8511C12.2206 12.1636 12.0688 12.3958 11.8278 12.6368C11.5867 12.8779 11.3545 13.0297 11.042 13.1547C10.1403 13.5118 7.99741 13.4315 6.99741 13.4315C5.9974 13.4315 3.85455 13.5118 2.95276 13.1547C2.64026 13.0297 2.40812 12.8779 2.16705 12.6368C1.92598 12.3958 1.77419 12.1636 1.64919 11.8511C1.29205 10.9493 1.3724 8.80647 1.3724 7.80647C1.3724 6.80647 1.29205 4.66361 1.64919 3.76182C1.77419 3.44932 1.92598 3.21718 2.16705 2.97611C2.40812 2.73504 2.64026 2.58325 2.95276 2.45825C3.85455 2.10111 5.9974 2.18147 6.99741 2.18147ZM13.8545 7.80647C13.8545 6.86004 13.8635 5.92254 13.8099 4.97611C13.7563 3.87789 13.5063 2.90468 12.7028 2.10111C11.8992 1.29754 10.926 1.04754 9.82776 0.993966C8.88133 0.940394 7.94383 0.949323 6.99741 0.949323C6.05098 0.949323 5.11348 0.940394 4.16705 0.993966C3.06883 1.04754 2.09562 1.29754 1.29205 2.10111C0.488476 2.90468 0.238476 3.87789 0.184905 4.97611C0.131333 5.92254 0.140262 6.86004 0.140262 7.80647C0.140262 8.75289 0.131333 9.69039 0.184905 10.6368C0.238476 11.735 0.488476 12.7083 1.29205 13.5118C2.09562 14.3154 3.06883 14.5654 4.16705 14.619C5.11348 14.6725 6.05098 14.6636 6.99741 14.6636C7.94383 14.6636 8.88133 14.6725 9.82776 14.619C10.926 14.5654 11.8992 14.3154 12.7028 13.5118C13.5063 12.7083 13.7563 11.735 13.8099 10.6368C13.8635 9.69039 13.8545 8.75289 13.8545 7.80647Z" fill="#D7B399"/>
</svg>
