<svg fill="none" height="40" viewBox="0 0 201 40" width="201" xmlns="http://www.w3.org/2000/svg" xmlns:xlink="http://www.w3.org/1999/xlink"><clipPath id="a"><path d="m0 0h40v40h-40z"/></clipPath><g clip-path="url(#a)" fill="#d7b399"><path d="m9.33879 14.7235-5.26658 5.2666 5.26658 5.2665 5.26661-5.2665z"/><path d="m19.9944 4.08541-5.2666 5.26658 5.2666 5.26661 5.2666-5.26661z"/><path d="m19.9914 25.3938-5.2666 5.2666 5.2665 5.2666 5.2666-5.2666z"/><path d="m30.647 14.7266-5.2666 5.2666 5.2666 5.2665 5.2666-5.2665z"/><path d="m28.6102 12.6866-5.2666 5.2666 2.0392 2.0391 5.2666-5.2665z"/><path d="m17.9547 23.3532-5.2666 5.2666 2.0392 2.0392 5.2665-5.2666z"/><path d="m25.2587 9.35299-5.2666 5.26661 2.0392 2.0391 5.2665-5.2666z"/><path d="m14.6177 20.0053-5.26654 5.2666 2.03914 2.0391 5.2666-5.2666z"/><path d="m11.3788 12.6864-2.03919 2.0392 5.26659 5.2666 2.0391-2.0392z"/><path d="m14.727 9.34953-2.0391 2.03917 5.2665 5.2665 2.0392-2.0391z"/><path d="m25.3796 19.9905-2.0391 2.0391 5.2665 5.2666 2.0392-2.0392z"/><path d="m22.046 23.342-2.0391 2.0392 5.2665 5.2665 2.0392-2.0391z"/><path d="m27.3029 32.6971-2.0332-2.0332-5.2697 5.2697-5.2697-5.2697-2.0332 2.0332 7.3029 7.3029z"/><path d="m9.3361 14.7303-2.0332-2.0332-7.3029 7.3029 7.3029 7.3029 2.0332-2.0332-5.26971-5.2697z"/><path d="m32.6971 12.6971-2.0332 2.0332 5.2697 5.2697-5.2697 5.2697 2.0332 2.0332 7.3029-7.3029z"/><path d="m25.2697 9.3361 2.0332-2.0332-7.3029-7.3029-7.3029 7.3029 2.0332 2.0332 5.2697-5.26971z"/></g><path d="m65.472 15.368h-5.376v-3.168h14.64v3.168h-5.376v13.632h-3.888zm27.9639-3.168v16.8h-3.888v-6.888h-7.632v6.888h-3.888v-16.8h3.888v6.624h7.632v-6.624zm18.1831 13.68v3.12h-13.0082v-16.8h12.6962v3.12h-8.832v3.648h7.8v3.024h-7.8v3.888zm12.29-13.68h3.888v13.632h8.424v3.168h-12.312zm23.539 17.088c-1.744 0-3.32-.376-4.728-1.128-1.392-.752-2.488-1.784-3.288-3.096-.784-1.328-1.176-2.816-1.176-4.464s.392-3.128 1.176-4.44c.8-1.328 1.896-2.368 3.288-3.12 1.408-.752 2.984-1.128 4.728-1.128s3.312.376 4.704 1.128 2.488 1.792 3.288 3.12c.8 1.312 1.2 2.792 1.2 4.44s-.4 3.136-1.2 4.464c-.8 1.312-1.896 2.344-3.288 3.096s-2.96 1.128-4.704 1.128zm0-3.312c.992 0 1.888-.224 2.688-.672.8-.464 1.424-1.104 1.872-1.92.464-.816.696-1.744.696-2.784s-.232-1.968-.696-2.784c-.448-.816-1.072-1.448-1.872-1.896-.8-.464-1.696-.696-2.688-.696s-1.888.232-2.688.696c-.8.448-1.432 1.08-1.896 1.896-.448.816-.672 1.744-.672 2.784s.224 1.968.672 2.784c.464.816 1.096 1.456 1.896 1.92.8.448 1.696.672 2.688.672zm21.45 3.312c-1.744 0-3.32-.376-4.728-1.128-1.392-.752-2.488-1.784-3.288-3.096-.784-1.328-1.176-2.816-1.176-4.464s.392-3.128 1.176-4.44c.8-1.328 1.896-2.368 3.288-3.12 1.408-.752 2.984-1.128 4.728-1.128s3.312.376 4.704 1.128 2.488 1.792 3.288 3.12c.8 1.312 1.2 2.792 1.2 4.44s-.4 3.136-1.2 4.464c-.8 1.312-1.896 2.344-3.288 3.096s-2.96 1.128-4.704 1.128zm0-3.312c.992 0 1.888-.224 2.688-.672.8-.464 1.424-1.104 1.872-1.92.464-.816.696-1.744.696-2.784s-.232-1.968-.696-2.784c-.448-.816-1.072-1.448-1.872-1.896-.8-.464-1.696-.696-2.688-.696s-1.888.232-2.688.696c-.8.448-1.432 1.08-1.896 1.896-.448.816-.672 1.744-.672 2.784s.224 1.968.672 2.784c.464.816 1.096 1.456 1.896 1.92.8.448 1.696.672 2.688.672zm20.586-13.776c1.488 0 2.776.248 3.864.744 1.104.496 1.952 1.2 2.544 2.112s.888 1.992.888 3.24c0 1.232-.296 2.312-.888 3.24-.592.912-1.44 1.616-2.544 2.112-1.088.48-2.376.72-3.864.72h-3.384v4.632h-3.888v-16.8zm-.216 9c1.168 0 2.056-.248 2.664-.744.608-.512.912-1.232.912-2.16 0-.944-.304-1.664-.912-2.16-.608-.512-1.496-.768-2.664-.768h-3.168v5.832z" fill="#212121"/></svg>