<svg width="18" height="11" viewBox="0 0 18 11" fill="none" xmlns="http://www.w3.org/2000/svg">
<path d="M17.5454 1.6251C17.5454 1.6251 17.4204 1.26796 16.6436 1.36618L14.0722 1.38403C13.8758 1.35725 13.7329 1.4376 13.7329 1.4376C13.7329 1.4376 13.5811 1.51796 13.5097 1.71439C13.09 2.79475 12.5543 3.72332 12.5543 3.72332C11.4115 5.66975 10.9472 5.77689 10.7597 5.65189C10.3222 5.3751 10.4383 4.52689 10.4383 3.91975C10.4383 2.02689 10.724 1.24118 9.87575 1.03582C9.59897 0.973318 9.39361 0.928676 8.6704 0.919747C7.75075 0.910818 6.97397 0.919747 6.53647 1.13403C6.24182 1.27689 6.01861 1.59832 6.15254 1.61618C6.32218 1.64296 6.70611 1.72332 6.91147 2.0001C6.91147 2.0001 7.13468 2.36618 7.1704 3.16975C7.26861 5.39296 6.81325 5.66975 6.81325 5.66975C6.46504 5.85725 5.8579 5.54475 4.96504 3.70546C4.96504 3.70546 4.44718 2.79475 4.0454 1.79475C3.97397 1.60725 3.83111 1.50903 3.83111 1.50903C3.83111 1.50903 3.6704 1.38403 3.43825 1.34832L0.991824 1.36618C0.616824 1.36618 0.482896 1.53582 0.482896 1.53582C0.482896 1.53582 0.348967 1.67868 0.473967 1.97332C2.38468 6.46439 4.56325 8.71439 4.56325 8.71439C4.56325 8.71439 6.55432 10.7947 8.81325 10.6519H9.84004C10.1525 10.6251 10.3133 10.4555 10.3133 10.4555C10.3133 10.4555 10.4561 10.2947 10.4472 10.0001C10.4293 8.6251 11.0722 8.41975 11.0722 8.41975C11.6972 8.22332 12.5008 9.7501 13.3579 10.3394C13.3579 10.3394 14.0097 10.7858 14.5008 10.6876L16.7865 10.6519C17.9918 10.643 17.4204 9.64296 17.4204 9.64296C17.3758 9.5626 17.09 8.94653 15.715 7.66975C14.2865 6.33939 14.474 6.55368 16.2061 4.2501C17.2597 2.84832 17.6793 1.99118 17.5454 1.6251Z" fill="#D7B399"/>
</svg>
